# xmcd
#
# Track frame offsets: 
#        150
#        23892
#        37532
#        50597
#        56322
#        67545
#        83192
#        102037
#        109657
#        117200
#        129947
#
# Disc length: 2139 seconds
#
# Revision: 1
# Processed by: cddbd v1.5.2PL0 Copyright (c) Steve Scherf et al.
# Submitted via: ExactAudioCopy v0.95b4
#
DISCID=7608590b
DTITLE=Grant Green - The Final Come-Down
DYEAR=2003
DGENRE=Blues
TTITLE0=Past, Present And Future
TTITLE1=The Final Comedown
TTITLE2=Father's Lament
TTITLE3=Fountain Scene
TTITLE4=Soul Food - African Shop
TTITLE5=Slight Fear And Terror
TTITLE6=Afro Party
TTITLE7=Luanna's Theme
TTITLE8=Battle Scene
TTITLE9=Traveling To Get To Doc
TTITLE10=One Second After Death
EXTD=
EXTT0=
EXTT1=
EXTT2=
EXTT3=
EXTT4=
EXTT5=
EXTT6=
EXTT7=
EXTT8=
EXTT9=
EXTT10=
PLAYORDER=
